<svg xmlns="http://www.w3.org/2000/svg" viewBox="0 0 477.08894 360.61384"><title>Asset 15</title><g id="Layer_2" data-name="Layer 2"><g id="Layer_1-2" data-name="Layer 1"><path d="M69.71217,207.44481c-3.46131,62.15273,98.66068,190.31525,160.082,121.80164,32.33086-36.06423,112.99168-79.9651,172.616-103.27373,57.97628-22.66463-68.20968-116.685-160.08171-121.80135S73.17347,145.29209,69.71217,207.44481Z" fill="#efedef"/><path d="M418.606,225.96438l-.38769-.99024c11.91064-4.65625,17.12011-12.207,15.48388-22.4414-2.99609-18.74317-28.90332-44.79493-67.61132-67.98926-40.65381-24.36035-86.752-40.11914-123.313-42.15528C142.44925,86.78957,57.75834,137.397,53.98392,205.17434l-1.0625-.0586c3.80762-68.36328,89.00488-119.39941,189.916-113.79,36.72461,2.04493,83.00537,17.86036,123.80029,42.30469,38.9707,23.35156,65.0708,49.68945,68.11523,68.73438C436.45462,213.0093,430.87064,221.17043,418.606,225.96438Z" fill="#efedef"/><rect x="11.20834" y="261.97027" width="137.73392" height="73.45809" rx="3.54214" fill="#935b50"/><path d="M143.37558,297.48184H16.775a2.82212,2.82212,0,0,1-2.81872-2.81873V268.72054a2.82212,2.82212,0,0,1,2.81872-2.81873H143.37558a2.82221,2.82221,0,0,1,2.81917,2.81873v25.94257A2.82221,2.82221,0,0,1,143.37558,297.48184ZM16.775,266.81667a1.90607,1.90607,0,0,0-1.90387,1.90387v25.94257A1.90607,1.90607,0,0,0,16.775,296.567H143.37558a1.90617,1.90617,0,0,0,1.90432-1.90387V268.72054a1.90617,1.90617,0,0,0-1.90432-1.90387Z" fill="#e19974"/><path d="M143.37558,331.38117H16.775a2.82212,2.82212,0,0,1-2.81872-2.81873V302.61987a2.82212,2.82212,0,0,1,2.81872-2.81873H143.37558a2.82222,2.82222,0,0,1,2.81917,2.81873v25.94257A2.82221,2.82221,0,0,1,143.37558,331.38117ZM16.775,300.716a1.90607,1.90607,0,0,0-1.90387,1.90387v25.94257a1.90607,1.90607,0,0,0,1.90387,1.90387H143.37558a1.90617,1.90617,0,0,0,1.90432-1.90387V302.61987a1.90617,1.90617,0,0,0-1.90432-1.90387Z" fill="#e19974"/><path d="M38.107,277.57322a1.47915,1.47915,0,0,0,.17169-.68185,1.4943,1.4943,0,0,0-2.9886,0,1.47813,1.47813,0,0,0,.17169.6816,6.38881,6.38881,0,1,0,2.64522.00025Zm-1.3228,10.47117a4.22286,4.22286,0,1,1,4.22335-4.22335A4.22825,4.22825,0,0,1,36.78422,288.04439Z" fill="#e19974"/><path d="M125.543,277.573a1.47813,1.47813,0,0,0,.17169-.6816,1.49424,1.49424,0,1,0-2.98847,0,1.47812,1.47812,0,0,0,.17168.6816,6.38841,6.38841,0,1,0,2.6451,0Zm-1.32255,10.47142a4.22286,4.22286,0,1,1,4.22334-4.22335A4.22824,4.22824,0,0,1,124.22045,288.04439Z" fill="#e19974"/><path d="M38.10726,309.25564a1.47821,1.47821,0,0,0,.17145-.68111,1.49436,1.49436,0,1,0-2.81728.68111,6.38829,6.38829,0,1,0,2.64583,0Zm-1.323,10.47215a4.22335,4.22335,0,1,1,4.22335-4.22335A4.22825,4.22825,0,0,1,36.78422,319.72779Z" fill="#e19974"/><path d="M125.54337,309.25564a1.47811,1.47811,0,0,0,.17132-.68111,1.49424,1.49424,0,1,0-2.98847,0,1.4782,1.4782,0,0,0,.17144.68111,6.38835,6.38835,0,1,0,2.64571,0Zm-1.32292,10.47215a4.22335,4.22335,0,1,1,4.22334-4.22335A4.22824,4.22824,0,0,1,124.22045,319.72779Z" fill="#e19974"/><polygon points="21.084 335.428 21.084 358.817 22.47 358.817 30.439 335.428 21.084 335.428" fill="#e19974"/><polygon points="139.442 335.428 139.442 358.817 138.056 358.817 130.087 335.428 139.442 335.428" fill="#e19974"/><rect x="82.17513" y="174.12091" width="25.70987" height="0.91447" transform="translate(-101.48796 144.76357) rotate(-52.81193)" fill="#4f66d0"/><rect x="71.60398" y="169.37499" width="0.91466" height="15.83306" transform="matrix(0.83205, -0.55471, 0.55471, 0.83205, -86.24189, 69.74984)" fill="#4f66d0"/><circle cx="103.63766" cy="163.34922" r="1.66047" fill="#ffba55"/><circle cx="67.29035" cy="169.87673" r="1.66047" fill="#ffba55"/><rect x="28.80685" y="191.12431" width="102.53729" height="66.52847" rx="5.48915" transform="translate(160.15098 448.77709) rotate(-180)" fill="#4f66d0"/><rect x="62.40043" y="195.73519" width="64.55238" height="57.74584" rx="3.62265" transform="translate(189.35325 449.21622) rotate(-180)" fill="#a2aee6"/><rect x="32.10034" y="195.73519" width="26.34791" height="57.74584" rx="3.65943" fill="#ffba55"/><rect x="108.72884" y="257.65278" width="11.63699" height="4.39132" transform="translate(229.09468 519.69688) rotate(-180)" fill="#4f66d0"/><rect x="40.11449" y="257.65278" width="11.63699" height="4.39132" transform="translate(91.86598 519.69688) rotate(-180)" fill="#4f66d0"/><path d="M69.207,183.87863H90.944a0,0,0,0,1,0,0v0a7.24567,7.24567,0,0,1-7.24567,7.24567H76.45264a7.24567,7.24567,0,0,1-7.24567-7.24567v0A0,0,0,0,1,69.207,183.87863Z" transform="translate(160.15098 375.00294) rotate(-180)" fill="#a2aee6"/><circle cx="45.27429" cy="211.84584" r="6.66931" fill="#4f66d0"/><circle cx="45.27429" cy="230.143" r="6.66931" fill="#4f66d0"/><circle cx="52.59316" cy="243.68747" r="1.91663" fill="#d5daf3"/><circle cx="45.27429" cy="243.68747" r="1.91663" fill="#d5daf3"/><circle cx="37.95543" cy="243.68747" r="1.91663" fill="#d5daf3"/><path d="M212.41762,141.16067V358.83729H163.20538V141.16067a2.36143,2.36143,0,0,1,2.36143-2.36143h44.48938A2.36143,2.36143,0,0,1,212.41762,141.16067Z" fill="#935b50"/><rect x="165.92106" y="178.4004" width="43.78088" height="32.51687" rx="2.36143" transform="translate(375.623 389.31766) rotate(-180)" fill="#e19974"/><rect x="165.92106" y="142.34138" width="43.78088" height="32.51687" rx="2.36143" transform="translate(375.623 317.19964) rotate(-180)" fill="#e19974"/><path d="M168.70205,170.73134c.74192.51941,1.029.58582,1.25048.81092.22768.21936.2916.50415.81095,1.25048a1.45886,1.45886,0,1,1-2.06143-2.0614Z" fill="#d6694b"/><path d="M170.76348,144.40688c-.51949.74194-.58585,1.02893-.81095,1.25049-.2193.22766-.50409.29162-1.25048.81091a1.45886,1.45886,0,1,1,2.06143-2.0614Z" fill="#d6694b"/><path d="M206.921,146.46828c-.74192-.51941-1.029-.58581-1.25048-.81091-.2277-.21924-.29162-.504-.81095-1.25049a1.45886,1.45886,0,1,1,2.06143,2.0614Z" fill="#d6694b"/><path d="M204.85953,172.79274c.51947-.74194.58583-1.02893.81095-1.25048.21928-.22766.50407-.29163,1.25048-.81092a1.45886,1.45886,0,1,1-2.06143,2.0614Z" fill="#d6694b"/><path d="M168.70205,206.7903c.74192.51953,1.029.58594,1.25048.811.22768.21924.2916.504.81095,1.25049a1.4589,1.4589,0,1,1-2.06143-2.06153Z" fill="#d6694b"/><path d="M170.76348,180.46584c-.51949.74194-.58585,1.02905-.81095,1.25049-.2193.22778-.50409.29162-1.25048.811a1.45889,1.45889,0,1,1,2.06143-2.06152Z" fill="#d6694b"/><path d="M206.921,182.52736c-.74192-.51953-1.029-.58593-1.25048-.811-.2277-.21924-.29162-.504-.81095-1.25049a1.45889,1.45889,0,1,1,2.06143,2.06152Z" fill="#d6694b"/><path d="M204.85953,208.85183c.51947-.742.58583-1.02906.81095-1.25049.21928-.22778.50407-.29163,1.25048-.811a1.4589,1.4589,0,1,1-2.06143,2.06153Z" fill="#d6694b"/><rect x="165.92106" y="214.45941" width="43.78088" height="32.51687" rx="2.36143" transform="translate(375.623 461.43569) rotate(-180)" fill="#e19974"/><rect x="165.92106" y="250.51842" width="43.78088" height="32.51687" rx="2.36143" transform="translate(375.623 533.55371) rotate(-180)" fill="#e19974"/><rect x="165.92106" y="286.57743" width="43.78088" height="32.51687" rx="2.36143" transform="translate(375.623 605.67174) rotate(-180)" fill="#e19974"/><rect x="165.92106" y="322.63645" width="43.78088" height="32.51687" rx="2.36143" transform="translate(375.623 677.78976) rotate(-180)" fill="#e19974"/><rect x="181.08143" y="154.17214" width="13.46014" height="4.959" rx="0.91486" transform="translate(375.623 313.30328) rotate(-180)" fill="#d6694b"/><rect x="181.08143" y="226.29017" width="13.46014" height="4.959" rx="0.91486" transform="translate(375.623 457.53933) rotate(-180)" fill="#d6694b"/><rect x="181.08143" y="262.34918" width="13.46014" height="4.959" rx="0.91486" transform="translate(375.623 529.65736) rotate(-180)" fill="#d6694b"/><rect x="181.08143" y="334.4672" width="13.46014" height="4.959" rx="0.91486" transform="translate(375.623 673.89341) rotate(-180)" fill="#d6694b"/><rect x="181.08143" y="298.40819" width="13.46014" height="4.959" rx="0.91486" transform="translate(375.623 601.77538) rotate(-180)" fill="#d6694b"/><rect x="181.08143" y="190.23115" width="13.46014" height="4.959" rx="0.91486" transform="translate(375.623 385.42131) rotate(-180)" fill="#d6694b"/><path d="M168.70205,242.84939c.74192.5194,1.029.58581,1.25048.81091.22768.21924.2916.504.81095,1.25049a1.45886,1.45886,0,1,1-2.06143-2.0614Z" fill="#d6694b"/><path d="M170.76348,216.52492c-.51949.742-.58585,1.02893-.81095,1.25049-.2193.22766-.50409.29163-1.25048.81091a1.45886,1.45886,0,1,1,2.06143-2.0614Z" fill="#d6694b"/><path d="M206.921,218.58632c-.74192-.51941-1.029-.58581-1.25048-.81091-.2277-.21936-.29162-.50415-.81095-1.25049a1.45886,1.45886,0,1,1,2.06143,2.0614Z" fill="#d6694b"/><path d="M204.85953,244.91079c.51947-.742.58583-1.02893.81095-1.25049.21928-.22766.50407-.29163,1.25048-.81091a1.45886,1.45886,0,1,1-2.06143,2.0614Z" fill="#d6694b"/><path d="M168.70205,278.90835c.74192.51953,1.029.58581,1.25048.81091.22768.21936.2916.50415.81095,1.25049a1.45886,1.45886,0,1,1-2.06143-2.0614Z" fill="#d6694b"/><path d="M170.76348,252.58388c-.51949.742-.58585,1.02906-.81095,1.25049-.2193.22766-.50409.29163-1.25048.81091a1.45885,1.45885,0,1,1,2.06143-2.0614Z" fill="#d6694b"/><path d="M206.921,254.64528c-.74192-.51941-1.029-.58581-1.25048-.81091-.2277-.21924-.29162-.504-.81095-1.25049a1.45885,1.45885,0,1,1,2.06143,2.0614Z" fill="#d6694b"/><path d="M204.85953,280.96975c.51947-.74182.58583-1.02893.81095-1.25049.21928-.22766.50407-.29151,1.25048-.81091a1.45886,1.45886,0,1,1-2.06143,2.0614Z" fill="#d6694b"/><path d="M168.70205,351.02639c.74192.51953,1.029.58581,1.25048.81091.22768.21936.2916.50415.81095,1.25049a1.45886,1.45886,0,1,1-2.06143-2.0614Z" fill="#d6694b"/><path d="M170.76348,324.70192c-.51949.742-.58585,1.02906-.81095,1.25049-.2193.22766-.50409.29163-1.25048.81092a1.45886,1.45886,0,1,1,2.06143-2.06141Z" fill="#d6694b"/><path d="M206.921,326.76333c-.74192-.51941-1.029-.58582-1.25048-.81092-.2277-.21924-.29162-.504-.81095-1.25049a1.45886,1.45886,0,1,1,2.06143,2.06141Z" fill="#d6694b"/><path d="M204.85953,353.08779c.51947-.74194.58583-1.02893.81095-1.25049.21928-.22766.50407-.2915,1.25048-.81091a1.45886,1.45886,0,1,1-2.06143,2.0614Z" fill="#d6694b"/><path d="M168.70205,314.96743c.74192.51941,1.029.58581,1.25048.81091.22768.21924.2916.504.81095,1.25049a1.45886,1.45886,0,1,1-2.06143-2.0614Z" fill="#d6694b"/><path d="M170.76348,288.643c-.51949.74195-.58585,1.02894-.81095,1.25049-.2193.22766-.50409.29151-1.25048.81092a1.45886,1.45886,0,1,1,2.06143-2.06141Z" fill="#d6694b"/><path d="M206.921,290.70437c-.74192-.51954-1.029-.58582-1.25048-.81092-.2277-.21936-.29162-.50415-.81095-1.25049a1.45886,1.45886,0,1,1,2.06143,2.06141Z" fill="#d6694b"/><path d="M204.85953,317.02883c.51947-.74194.58583-1.02905.81095-1.25049.21928-.22766.50407-.29163,1.25048-.81091a1.45886,1.45886,0,1,1-2.06143,2.0614Z" fill="#d6694b"/><path d="M180.14616,112.16808h14.78669a15.4794,15.4794,0,0,1,15.4794,15.4794v10.20974a0,0,0,0,1,0,0H164.66676a0,0,0,0,1,0,0V127.64748A15.4794,15.4794,0,0,1,180.14616,112.16808Z" transform="translate(375.07901 250.0253) rotate(-180)" fill="#d6694b"/><path d="M193.19172,107.58915a13.037,13.037,0,0,0,1.58425-3.53447,8.20635,8.20635,0,0,0,.29885-2.741,3.00615,3.00615,0,0,0-.99169-2.06792,14.05089,14.05089,0,0,1-1.75065-1.74194l-2.82766-3.81053a18.28168,18.28168,0,0,1-2.43791-4.18119l-.02144-.05483a.545.545,0,0,0-.97539-.08354,12.85168,12.85168,0,0,0-1.44934,5.52891,24.74757,24.74757,0,0,0,.20682,5.51483c.128.89208.06388,1.86166.11659,2.79539a3.59177,3.59177,0,0,0,1.03279,2.40195,7.6824,7.6824,0,0,0,2.46,1.66421,10.103,10.103,0,0,0,3.87765.8034.99461.99461,0,0,0,.859-.464Z" fill="#8b9d36"/><path d="M201.39864,89.4298,198.238,96.999a10.34752,10.34752,0,0,1-1.00487,1.68186,4.05268,4.05268,0,0,0-.40047.81133,3.44975,3.44975,0,0,0-.13625.85935,7.255,7.255,0,0,0,.05316.91274,7.51186,7.51186,0,0,0,.17511.97516c.06187.30957.1789.68056.27852,1.08807.11771.39277.19543.79715.33749,1.38848l.0163.0679a.5094.5094,0,0,0,.4351.38629,4.1313,4.1313,0,0,0,1.62021-.1827,6.91489,6.91489,0,0,0,1.32359-.652,7.39342,7.39342,0,0,0,1.0252-.86773,7.08276,7.08276,0,0,0,.7737-.98388,3.86455,3.86455,0,0,0,.63588-2.21332c-.00848-.77727-.12061-1.548-.10721-2.27609-.00312-.73283-.02077-1.45627-.059-2.17368-.06477-.72222-.15077-1.43728-.24033-2.14688a29.82268,29.82268,0,0,0-.92558-4.21793.34029.34029,0,0,0-.42661-.2228A.34929.34929,0,0,0,201.39864,89.4298Z" fill="#5e7c24"/><path d="M222.638,94.92855c-1.92419.514-3.78964,1.12805-5.66023,1.72619l-2.77652.94445-2.731,1.013c-.90637.34352-1.86992.575-2.81336.84015a7.1072,7.1072,0,0,0-2.53529,1.31489,13.32241,13.32241,0,0,0-3.80864,5.01117l-.04578.10095a.38778.38778,0,0,0,.1932.51305l.01362.0058a8.53161,8.53161,0,0,0,3.56808.5528,12.13578,12.13578,0,0,0,3.05727-.51427,7.06235,7.06235,0,0,0,2.56924-1.40556c.75159-.65421,1.48374-1.34035,2.26615-1.92744l2.3336-1.78136,2.27464-1.87416c1.49357-1.28674,2.98647-2.56835,4.41258-3.96364a.3309.3309,0,0,0-.31761-.556Z" fill="#50661a"/><path d="M225.93676,110.47577c-1.69436-.56586-3.39319-1.00788-5.0918-1.46006l-2.54981-.618-2.55338-.52209c-.85165-.15713-1.69794-.46346-2.54691-.698a5.61406,5.61406,0,0,0-2.56745-.12207,10.35146,10.35146,0,0,0-2.60118.84853,9.54853,9.54853,0,0,0-2.63648,1.85149.47213.47213,0,0,0-.02233.64,9.5449,9.5449,0,0,0,2.50022,2.03163,10.35475,10.35475,0,0,0,2.53552,1.02843,5.61288,5.61288,0,0,0,2.56946.05807c.86349-.17455,1.72921-.42091,2.58979-.51807l2.58354-.34195,2.58688-.438c1.72608-.33224,3.45172-.6542,5.18159-1.1a.33382.33382,0,0,0,.24011-.40661A.33755.33755,0,0,0,225.93676,110.47577Z" fill="#5e7c24"/><path d="M213.5453,115.34981a8.66837,8.66837,0,0,0-2.7468,1.36949,8.89557,8.89557,0,0,0-1.82146,1.80314,4.79135,4.79135,0,0,0-.91977,2.20741c-.12418.81524-.18181,1.65594-.369,2.44326l-.50679,2.38263-.37412,2.43769c-.09649.82083-.19119,1.64634-.23809,2.48682a10.45147,10.45147,0,0,0,.0985,2.60141.32037.32037,0,0,0,.59948.08186l.0411-.08186a38.1706,38.1706,0,0,1,2.49977-3.971l1.32851-1.976,1.28295-1.99667a23.37175,23.37175,0,0,1,1.46743-1.9166,4.73727,4.73727,0,0,0,.95819-2.13493,9.29175,9.29175,0,0,0-.71763-5.47A.49446.49446,0,0,0,213.5453,115.34981Z" fill="#8b9d36"/><path d="M239.61384,121.62237a18.5378,18.5378,0,0,0-3.95694-3.36483q-1.09823-.70307-2.2657-1.31131c-.78286-.38987-1.58849-.71987-2.4024-1.06-.82239-.28165-1.62512-.74634-2.46694-1.05289a4.87637,4.87637,0,0,0-2.60721-.32465,7.93948,7.93948,0,0,0-5.10722,2.77361.46824.46824,0,0,0,.00939.621l.01742.01887a10.81748,10.81748,0,0,0,2.36733,1.91884,11.09586,11.09586,0,0,0,2.20249,1.05133,4.91,4.91,0,0,0,2.20383.21475,14.01562,14.01562,0,0,1,2.301-.21286c.7565.03306,1.5264.05629,2.28781.13971.77526.03652,1.55231.11023,2.3269.21833a32.31664,32.31664,0,0,1,4.72037.893l.03216.0086a.33008.33008,0,0,0,.33771-.53147Z" fill="#8b9d36"/><path d="M222.167,119.50263a6.8617,6.8617,0,0,0-3.05593.63053,7.77709,7.77709,0,0,0-2.22527,1.52171,4.8381,4.8381,0,0,0-1.28943,2.21846c-.23742.84863-.36764,1.73613-.59479,2.56243l-.29907,1.25268-.228,1.26776a24.08873,24.08873,0,0,0-.17668,2.56455,16.30607,16.30607,0,0,0,.74154,4.97074.33285.33285,0,0,0,.63187.01117l.00826-.02435a26.08018,26.08018,0,0,1,1.74082-4.24841,20.48762,20.48762,0,0,1,1.08662-1.90454l.56039-.91832.61311-.88448a11.10143,11.10143,0,0,1,1.473-1.59754,4.23937,4.23937,0,0,0,1.09488-1.76964,11.57512,11.57512,0,0,0,.37926-5.20783l-.00425-.03172A.47459.47459,0,0,0,222.167,119.50263Z" fill="#50661a"/><path d="M240.86954,134.9269c-1.262-1.08014-2.55785-2.06536-3.83544-3.06822l-1.92754-1.461-1.93871-1.39373a20.4364,20.4364,0,0,1-1.81878-1.57419,4.74613,4.74613,0,0,0-2.01867-1.08908,9.67076,9.67076,0,0,0-2.42942-.29538,13.34808,13.34808,0,0,0-1.37.0832,13.603,13.603,0,0,0-1.58582.28254l-.02524.00659a.48861.48861,0,0,0-.36406.50187,6.3479,6.3479,0,0,0,.36406,1.651,9.77508,9.77508,0,0,0,.64639,1.35207,8.69777,8.69777,0,0,0,1.71737,2.05084,4.90748,4.90748,0,0,0,2.20607,1.11487c.82239.18661,1.67225.297,2.45533.53158l2.37.64125,2.40708.51829c1.62111.29673,3.23484.58642,4.90084.73841a.33542.33542,0,0,0,.36473-.30365A.34365.34365,0,0,0,240.86954,134.9269Z" fill="#50661a"/><path d="M241.85759,145.57913c-1.26195-1.08014-2.55785-2.06536-3.83544-3.06822L236.09461,141.05l-1.93872-1.39373a20.438,20.438,0,0,1-1.81877-1.5742,4.74619,4.74619,0,0,0-2.01867-1.08908,9.67088,9.67088,0,0,0-2.42942-.29538,13.34844,13.34844,0,0,0-1.37006.0832,13.60286,13.60286,0,0,0-1.58581.28254l-.02524.00659a.48861.48861,0,0,0-.36407.50188,6.34823,6.34823,0,0,0,.36407,1.651,9.77508,9.77508,0,0,0,.64639,1.35207,8.69757,8.69757,0,0,0,1.71737,2.05084,4.90744,4.90744,0,0,0,2.20606,1.11487c.82239.18661,1.67225.297,2.45533.53158l2.37.64125,2.40709.5183c1.6211.29672,3.23483.58641,4.90083.7384a.3354.3354,0,0,0,.36474-.30365A.34371.34371,0,0,0,241.85759,145.57913Z" fill="#8b9d36"/><path d="M223.69518,133.696l-.38819-.0517-.3357-.00134c-.22537.00335-.44805.01407-.67185.0297a4.60716,4.60716,0,0,0-1.11476.3032,4.02887,4.02887,0,0,0-1.61775,1.14559,2.31234,2.31234,0,0,0-.56933,1.67113c.02077.62026.16394,1.24029.17377,1.81218a11.11881,11.11881,0,0,0,.64482,3.3215,11.55667,11.55667,0,0,0,1.51211,2.89992.3579.3579,0,0,0,.62561-.08823l.006-.01708c.36653-1.006.652-1.92677,1.05825-2.78277a10.35172,10.35172,0,0,1,.58765-1.22621c.17689-.39456.40382-.76376.5939-1.12526a4.60414,4.60414,0,0,1,.86527-.9554,1.173,1.173,0,0,0,.39869-1.01146,5.22475,5.22475,0,0,0-.36407-1.41606c-.08823-.26546-.23073-.58429-.36742-.912-.20973-.38405-.30443-.70323-.55436-1.17495l-.07125-.13457A.55261.55261,0,0,0,223.69518,133.696Z" fill="#5e7c24"/><path d="M226.47862,143.23745a6.53308,6.53308,0,0,0-2.45667,2.27241,8.1193,8.1193,0,0,0-1.138,2.7602,5.45944,5.45944,0,0,0,.13513,2.853c.27718.93094.7011,1.81184.98141,2.69845a22.317,22.317,0,0,0,2.431,4.94506,26.53811,26.53811,0,0,0,1.599,2.17424c.56911.68815,1.20723,1.32091,1.819,1.94541a.329.329,0,0,0,.55749-.2955l-.00648-.03082c-.18-.85991-.3969-1.67973-.56777-2.5019-.13088-.83914-.35066-1.62479-.41677-2.45153l-.1702-1.19986-.08666-1.19952c-.10833-.77806-.09381-1.57018-.12441-2.33618a11.84127,11.84127,0,0,1,.30019-2.30132,6.84682,6.84682,0,0,0,.09827-1.10214,6.34727,6.34727,0,0,0-.14607-1.08629,14.41019,14.41019,0,0,0-.77928-2.27184,19.2578,19.2578,0,0,0-1.42388-2.66283l-.03462-.05427A.44146.44146,0,0,0,226.47862,143.23745Z" fill="#8b9d36"/><path d="M194.399,106.1273a7.97878,7.97878,0,0,0-1.65394,2.35906,7.514,7.514,0,0,0-.639,2.245,3.86626,3.86626,0,0,0,.34039,2.11662c.30845.6771.69083,1.34157.93116,2.028l.78286,2.04927.91843,2.02538a17.72563,17.72563,0,0,0,2.40485,3.90713.32538.32538,0,0,0,.56777-.22726l-.00268-.07416a41.591,41.591,0,0,1,.16908-4.2378l.13624-2.1337.0813-2.12444a19.05306,19.05306,0,0,1,.28076-2.1538,3.7898,3.7898,0,0,0-.26936-2.07138,7.73345,7.73345,0,0,0-1.21572-1.94776,8.44471,8.44471,0,0,0-2.19646-1.83809A.52965.52965,0,0,0,194.399,106.1273Z" fill="#50661a"/><path d="M186.90766,109.24789l-.37256.09548-.30957.11447-.61154.236a5.95046,5.95046,0,0,0-.94814.5595,4.35191,4.35191,0,0,0-1.25636,1.31846,2.07571,2.07571,0,0,0-.25172,1.5608c.11011.55336.31627,1.12336.37166,1.66175a15.01043,15.01043,0,0,0,.7661,3.28554,6.41475,6.41475,0,0,0,1.93268,2.98312.341.341,0,0,0,.5432-.2611l.0029-.07337a7.74433,7.74433,0,0,1,.72233-2.7209c.17578-.43956.34888-.86382.56352-1.29858l.55414-1.29a8.21321,8.21321,0,0,1,.7985-1.25179,1.68559,1.68559,0,0,0,.27561-1.33633,4.61514,4.61514,0,0,0-.63454-1.56013,7.30172,7.30172,0,0,0-.60395-.87208l-.43175-.47787-.216-.24178-.27741-.26009-.019-.01765A.64831.64831,0,0,0,186.90766,109.24789Z" fill="#8b9d36"/><path d="M185.48311,109.03816a9.01763,9.01763,0,0,0-.22157-3.06118,9.19582,9.19582,0,0,0-.94189-2.37191,4.81785,4.81785,0,0,0-1.643-1.70944c-.68882-.43777-1.42835-.82853-2.05888-1.32147l-1.92263-1.4489-1.9836-1.39407L172.65923,95.01l-.00826-.00547a.33384.33384,0,0,0-.49719.39857,41.90915,41.90915,0,0,0,2.18061,4.47334l1.22108,2.12611,1.30282,2.05228c.44827.67062.788,1.44321,1.182,2.16509a4.8332,4.8332,0,0,0,1.609,1.76706,9.09705,9.09705,0,0,0,2.31976,1.09555,8.85253,8.85253,0,0,0,3.0499.39679A.49175.49175,0,0,0,185.48311,109.03816Z" fill="#50661a"/><path d="M176.87258,111.92333a9.67876,9.67876,0,0,0-.78888-3.18145,10.86558,10.86558,0,0,0-1.44153-2.41881,5.99532,5.99532,0,0,0-2.06468-1.67393c-.81167-.4084-1.668-.76063-2.42942-1.22778L167.833,102.0598l-2.37291-1.28474c-1.60592-.82428-3.20379-1.65494-4.8756-2.38653a.3312.3312,0,0,0-.4065.4897l.008.01195c1.04172,1.52316,2.15738,2.94738,3.26477,4.37785l1.69726,2.0974,1.75534,2.02069c.59524.66012,1.09555,1.43538,1.64076,2.15436a5.88974,5.88974,0,0,0,2.0055,1.70821,10.84353,10.84353,0,0,0,2.62887.96344,9.944,9.944,0,0,0,3.2813.20068A.46567.46567,0,0,0,176.87258,111.92333Z" fill="#5e7c24"/><path d="M176.66777,120.87748a8.09369,8.09369,0,0,0-.08309,2.83883,7.386,7.386,0,0,0,.66872,2.17413,3.6727,3.6727,0,0,0,1.39619,1.53076,20.95576,20.95576,0,0,1,1.82815,1.149l1.69615,1.26575,1.76807,1.20209c1.20879.7747,2.41,1.55622,3.70411,2.25565a.341.341,0,0,0,.47976-.42415c-.53583-1.36994-1.16434-2.6578-1.78505-3.95247l-.9765-1.902-1.04842-1.83843a20.96038,20.96038,0,0,1-.91665-1.955,3.67317,3.67317,0,0,0-1.34816-1.57319,7.38291,7.38291,0,0,0-2.07585-.93,8.09622,8.09622,0,0,0-2.82767-.26523A.5351.5351,0,0,0,176.66777,120.87748Z" fill="#5e7c24"/><path d="M177.94133,129.09088l-.39846.04713-.33994.08063-.67342.17589a5.85545,5.85545,0,0,0-1.085.50925,4.9067,4.9067,0,0,0-1.55231,1.37965,2.77711,2.77711,0,0,0-.54834,1.8056c.01832.66448.13625,1.345.12709,1.98584a14.27816,14.27816,0,0,0,.5021,3.86972,9.49377,9.49377,0,0,0,1.75981,3.45975.3459.3459,0,0,0,.60462-.17835l.00313-.02345a13.64029,13.64029,0,0,1,.83422-3.21842,14.64959,14.64959,0,0,1,.63611-1.44744c.199-.46916.44872-.93831.67074-1.39507a7.85407,7.85407,0,0,1,.95394-1.29646,2.11031,2.11031,0,0,0,.49049-1.41595,5.87922,5.87922,0,0,0-.33034-1.77712,9.066,9.066,0,0,0-.40852-1.04251l-.3147-.59054-.15456-.29986-.20929-.33145-.02367-.03753A.56509.56509,0,0,0,177.94133,129.09088Z" fill="#50661a"/><path d="M176.68653,113.01051l-.379-.10476-.33347-.05952-.66247-.12284a7.77989,7.77989,0,0,0-1.12816-.059,5.45831,5.45831,0,0,0-1.82681.28891,2.19686,2.19686,0,0,0-1.21036.97661,9.559,9.559,0,0,1-.90458,1.39005c-.35178.3845-.70423.79145-1.062,1.16669-.34709.41733-.70647.77917-1.081,1.15206a6.48968,6.48968,0,0,1-2.54177,1.77309l-.06343.02111a.33613.33613,0,0,0-.06991.60529,6.22918,6.22918,0,0,0,3.96878.52957,15.99,15.99,0,0,0,3.70164-.99191c.56643-.23866,1.23359-.35625,1.83575-.5585a2.653,2.653,0,0,0,1.44934-1.08081,5.064,5.064,0,0,0,.75338-1.86735,6.34393,6.34393,0,0,0,.13222-1.17194l-.03886-.68692-.025-.34486-.07192-.39188a.5822.5822,0,0,0-.41678-.4562Z" fill="#8b9d36"/><path d="M183.05547,136.4849a10.109,10.109,0,0,0-2.41535-5.05c-1.04016-1.12638-1.622-1.16446-2.41513-2.19557-.66939-.87019-1.22643-2.10612-1.31734-6.36749a50.10227,50.10227,0,0,1,.43912-7.90439c.22893-1.622-.8868-1.39574-.65185-3.19066a1.54253,1.54253,0,0,1,1.04925-1.26309,25.17576,25.17576,0,0,1,7.50687-1.255c2.52881-.02412,2.97418.3797,4.61092,0,3.70768-.86025,3.83119-3.49136,7.026-4.1717a8.02872,8.02872,0,0,1,7.0734,2.216c1.507,1.56448.84271,2.51441,2.368,4.37093,1.44555,1.75925,3.26723,2.39748,6.58694,3.513,5.2984,1.78047,6.18623.84763,7.9045,2.41524,2.22349,2.02861,2.66148,5.34709,2.85424,6.8066a24.039,24.039,0,0,1,0,4.1717,50.98208,50.98208,0,0,0,.65867,8.3435c.928,5.58452,5.119,10.56955,7.9045,13.39353" fill="none" stroke="#7e883b" stroke-miterlimit="10" stroke-width="0.91486"/><path d="M230.7152,149.17007l-.13156.35725-.08309.31426-.16215.62517a6.4712,6.4712,0,0,0-.11481,1.065,4.37265,4.37265,0,0,0,.24458,1.71134,1.816,1.816,0,0,0,.9803,1.06127,11.49779,11.49779,0,0,1,1.41226.67978c.41946.27171.84428.53895,1.28005.79625l1.3524.73272c.93161.46189,1.85563.93049,2.87234,1.31711a.36167.36167,0,0,0,.48-.424c-.25819-1.05669-.60931-2.03141-.9526-3.01294l-.5604-1.43237c-.20146-.46435-.41432-.91876-.63231-1.36871a11.47409,11.47409,0,0,1-.50031-1.4853,1.81668,1.81668,0,0,0-.93228-1.10371,4.37154,4.37154,0,0,0-1.66823-.45363,6.47692,6.47692,0,0,0-1.071-.01753l-.64035.08387-.32208.04355-.37077.08666A.68256.68256,0,0,0,230.7152,149.17007Z" fill="#50661a"/><path d="M182.07651,134.22757a7.19293,7.19293,0,0,0-1.95077,1.90912,6.2864,6.2864,0,0,0-.91017,1.95446,3.18878,3.18878,0,0,0,.09984,1.95513c.23407.645.54923,1.28317.72188,1.92777.19342.64538.39332,1.28864.61,1.932.2506.64058.51237,1.27792.80162,1.91236a15.463,15.463,0,0,0,1.05892,1.87025,3.63,3.63,0,0,0,1.7674,1.55086.30771.30771,0,0,0,.37121-.42627l-.06611-.13669a3.64039,3.64039,0,0,1-.16417-1.60882c.03351-.59122.09269-1.19494.1865-1.80381.073-.60685.17-1.21895.27719-1.82982.07705-.60887.1693-1.22086.26735-1.83173a13.72629,13.72629,0,0,1,.50165-1.845,2.94433,2.94433,0,0,0-.031-1.822,6.662,6.662,0,0,0-.96646-1.82458,8.3055,8.3055,0,0,0-1.93446-1.87014l-.00872-.006A.56206.56206,0,0,0,182.07651,134.22757Z" fill="#8b9d36"/><path d="M114.38256,87.733a9.08444,9.08444,0,0,1-18.16887,0c0-5.01719,4.06724-11.95925,9.08444-11.95925S114.38256,82.71582,114.38256,87.733Z" fill="#ffba55"/><path d="M108.14723,76.56134h-5.77184V68.69841a.91486.91486,0,0,1,.91486-.91486h3.94212a.91486.91486,0,0,1,.91486.91486Z" fill="#f65b2b"/><line x1="105.29813" y1="0.45743" x2="105.29813" y2="54.2786" fill="none" stroke="#7ca1b1" stroke-miterlimit="10" stroke-width="0.91486"/><polygon points="105.298 54.279 73.641 98.442 85.17 111.731 105.298 111.731 105.298 54.279" fill="none" stroke="#7ca1b1" stroke-miterlimit="10" stroke-width="0.91486"/><polyline points="105.298 54.279 89.469 98.638 94.355 111.731" fill="none" stroke="#7ca1b1" stroke-miterlimit="10" stroke-width="0.91486"/><line x1="73.64085" y1="98.44245" x2="105.29813" y2="98.44245" fill="none" stroke="#7ca1b1" stroke-miterlimit="10" stroke-width="0.91486"/><polygon points="105.298 54.279 136.955 98.442 125.426 111.731 105.298 111.731 105.298 54.279" fill="none" stroke="#7ca1b1" stroke-miterlimit="10" stroke-width="0.91486"/><polyline points="105.298 54.279 121.127 98.638 116.241 111.731" fill="none" stroke="#7ca1b1" stroke-miterlimit="10" stroke-width="0.91486"/><line x1="136.9554" y1="98.44245" x2="105.29813" y2="98.44245" fill="none" stroke="#7ca1b1" stroke-miterlimit="10" stroke-width="0.91486"/><line x1="98.49721" y1="0.45743" x2="112.09904" y2="0.45743" fill="none" stroke="#9857bd" stroke-miterlimit="10" stroke-width="0.91486"/><path d="M424.22312,333.59842s-22.06638-36.73385-25.52454-45.95562" fill="none" stroke="#8b9d36" stroke-miterlimit="10" stroke-width="0.91486"/><path d="M406.10872,268.37592a39.30124,39.30124,0,0,0-2.11338,7.0835,66.22138,66.22138,0,0,0-1.08014,7.18184,64.90528,64.90528,0,0,0-.29751,7.25621,38.77195,38.77195,0,0,0,.746,7.35544,38.80589,38.80589,0,0,0,2.11829-7.08311,65.00711,65.00711,0,0,0,1.07523-7.18229,66.22,66.22,0,0,0,.29259-7.25666A39.26752,39.26752,0,0,0,406.10872,268.37592Z" fill="#8b9d36"/><path d="M414.17805,279.4091a37.4884,37.4884,0,0,0-2.74234,6.67873,62.9581,62.9581,0,0,0-1.72295,6.8745,61.99723,61.99723,0,0,0-.95105,7.02276,37.078,37.078,0,0,0,.07863,7.22042,37.04436,37.04436,0,0,0,2.74725-6.67778,61.99915,61.99915,0,0,0,1.718-6.87551,63.06384,63.06384,0,0,0,.94613-7.02365A37.52364,37.52364,0,0,0,414.17805,279.4091Z" fill="#8b9d36"/><path d="M418.62413,292.25369a31.80909,31.80909,0,0,0-2.33449,6.20784,52.84192,52.84192,0,0,0-1.30618,6.35459,51.957,51.957,0,0,0-.52845,6.4656,31.40671,31.40671,0,0,0,.50925,6.61373,31.40929,31.40929,0,0,0,2.33941-6.20717,51.87232,51.87232,0,0,0,1.30126-6.35526,52.84488,52.84488,0,0,0,.52354-6.46632A31.77737,31.77737,0,0,0,418.62413,292.25369Z" fill="#8b9d36"/><path d="M424.22317,305.07454a24.35129,24.35129,0,0,0-2.3671,5.28294,39.68227,39.68227,0,0,0-1.3437,5.45961,38.94821,38.94821,0,0,0-.56955,5.59329,24.0691,24.0691,0,0,0,.46323,5.77163,24.05023,24.05023,0,0,0,2.372-5.2821,39.01189,39.01189,0,0,0,1.33923-5.46045,39.74561,39.74561,0,0,0,.56464-5.59412A24.351,24.351,0,0,0,424.22317,305.07454Z" fill="#8b9d36"/><path d="M429.16332,313.088a21.9234,21.9234,0,0,0-2.49889,4.63861,37.80211,37.80211,0,0,0-1.57107,4.81194,43.19568,43.19568,0,0,0-.94881,4.93467c-.10274.83758-.197,1.67047-.25954,2.51944a18.748,18.748,0,0,1-.27606,2.57974,5.065,5.065,0,0,0,.60752-.3835l.49317-.49417a9.11948,9.11948,0,0,0,.86259-1.07891,17.28026,17.28026,0,0,0,1.32628-2.30826,25.70354,25.70354,0,0,0,1.74037-4.86722,28.81,28.81,0,0,0,.81926-5.0679A19.07824,19.07824,0,0,0,429.16332,313.088Z" fill="#8b9d36"/><path d="M401.31062,293.3073a31.51582,31.51582,0,0,0-5.566-4.82651,51.578,51.578,0,0,0-6.15206-3.66853,50.67371,50.67371,0,0,0-6.59609-2.79209,31.15516,31.15516,0,0,0-7.18753-1.62306,31.14733,31.14733,0,0,0,5.56285,4.832,50.67994,50.67994,0,0,0,6.15519,3.663,51.55782,51.55782,0,0,0,6.59877,2.78657A31.51321,31.51321,0,0,0,401.31062,293.3073Z" fill="#8b9d36"/><path d="M406.77788,303.51916a38.82347,38.82347,0,0,0-6.865-4.49405,64.638,64.638,0,0,0-7.32155-3.279,63.48111,63.48111,0,0,0-7.66685-2.35951,38.38131,38.38131,0,0,0-8.1274-1.13291,38.38924,38.38924,0,0,0,6.86232,4.49986,63.49468,63.49468,0,0,0,7.32378,3.27319,64.624,64.624,0,0,0,7.66909,2.35371A38.82392,38.82392,0,0,0,406.77788,303.51916Z" fill="#8b9d36"/><path d="M413.21361,314.87a33.108,33.108,0,0,0-6.18825-4.33887,54.408,54.408,0,0,0-6.66042-3.12975,53.44362,53.44362,0,0,0-7.01733-2.21467,32.72494,32.72494,0,0,0-7.49353-.994,32.73668,32.73668,0,0,0,6.186,4.34463,53.45233,53.45233,0,0,0,6.66265,3.124,54.41517,54.41517,0,0,0,7.01957,2.20892A33.107,33.107,0,0,0,413.21361,314.87Z" fill="#8b9d36"/><path d="M418.29982,323.60678a24.82016,24.82016,0,0,0-5.43509-3.58,39.63872,39.63872,0,0,0-5.82284-2.34125,38.928,38.928,0,0,0-6.11677-1.40389,24.55659,24.55659,0,0,0-6.50809-.15339,24.55476,24.55476,0,0,0,5.43331,3.58583,38.92446,38.92446,0,0,0,5.82507,2.33539,39.61932,39.61932,0,0,0,6.11811,1.39792A24.833,24.833,0,0,0,418.29982,323.60678Z" fill="#8b9d36"/><path d="M422.31484,331.44617a32.64593,32.64593,0,0,0-5.97428-4.53933,53.578,53.578,0,0,0-6.48977-3.34819,52.64366,52.64366,0,0,0-6.8802-2.44684A32.27891,32.27891,0,0,0,395.57,319.8675a32.26667,32.26667,0,0,0,5.97159,4.545,52.62406,52.62406,0,0,0,6.49246,3.34261,53.5675,53.5675,0,0,0,6.88243,2.441A32.644,32.644,0,0,0,422.31484,331.44617Z" fill="#8b9d36"/><path d="M399.53407,288.96022a22.97764,22.97764,0,0,0-.17824-7.337,34.5722,34.5722,0,0,0-1.86947-6.67471,34.00535,34.00535,0,0,0-3.15063-6.17306,22.74816,22.74816,0,0,0-4.85885-5.50445,22.73441,22.73441,0,0,0,.16975,7.34014,34.03512,34.03512,0,0,0,1.87752,6.67159,34.57528,34.57528,0,0,0,3.15911,6.16987A22.98116,22.98116,0,0,0,399.53407,288.96022Z" fill="#8b9d36"/><path d="M427.64765,335.32179s-.988-61.09422-12.8446-79.8671" fill="none" stroke="#50661a" stroke-miterlimit="10" stroke-width="0.91486"/><path d="M418.59108,263.62934a41.925,41.925,0,0,1-.27428-8.25025,74.17006,74.17006,0,0,1,.89163-8.00317c.427-2.6392,1.00822-5.25217,1.69168-7.84341.68257-2.60833,1.54472-5.11788,2.46583-7.79092a11.43118,11.43118,0,0,1,.5901,2.05117,18.27918,18.27918,0,0,1,.32252,2.08429,35.31865,35.31865,0,0,1,.18583,4.13752,53.12321,53.12321,0,0,1-.74466,8.10892,58.93219,58.93219,0,0,1-1.87617,7.89545A37.123,37.123,0,0,1,418.59108,263.62934Z" fill="#50661a"/><path d="M404.09942,226.30733a29.64271,29.64271,0,0,1,5.16082,6.63093,46.60182,46.60182,0,0,1,3.45886,7.26789,45.79367,45.79367,0,0,1,2.171,7.75,29.32317,29.32317,0,0,1,.453,8.393,29.32253,29.32253,0,0,1-5.16885-6.62792,45.75088,45.75088,0,0,1-3.45082-7.271,46.60007,46.60007,0,0,1-2.163-7.753A29.62766,29.62766,0,0,1,404.09942,226.30733Z" fill="#50661a"/><path d="M394.38352,241.32822a68.28783,68.28783,0,0,1,6.79622,6.26218c2.10042,2.17737,4.1048,4.40342,6.06585,6.64154l5.82641,6.6865c.9774,1.09493,1.96507,2.17384,3.00858,3.1958A13.73778,13.73778,0,0,0,419.63593,266.8a6.17138,6.17138,0,0,1-2.43322-.0617,11.39173,11.39173,0,0,1-2.34432-.73735,22.63981,22.63981,0,0,1-4.17538-2.39408,40.97958,40.97958,0,0,1-6.878-6.363,54.29633,54.29633,0,0,1-5.46547-7.4665A38.85921,38.85921,0,0,1,394.38352,241.32822Z" fill="#50661a"/><path d="M394.38352,256.34912a56.24644,56.24644,0,0,1,8.44859,5.19621,95.71554,95.71554,0,0,1,7.58019,6.16078,94.09569,94.09569,0,0,1,6.92308,6.89075,55.613,55.613,0,0,1,6.04619,7.86446,55.59211,55.59211,0,0,1-8.45305-5.19164,94.02542,94.02542,0,0,1-7.57617-6.16535,95.70706,95.70706,0,0,1-6.91861-6.89533A56.24007,56.24007,0,0,1,394.38352,256.34912Z" fill="#50661a"/><path d="M395.37164,268.13461a55.61833,55.61833,0,0,1,8.5357,4.93624,94.59089,94.59089,0,0,1,7.6932,5.92307,92.96161,92.96161,0,0,1,7.05486,6.66985,54.99365,54.99365,0,0,1,6.20344,7.666,54.96546,54.96546,0,0,1-8.54017-4.93149,92.901,92.901,0,0,1-7.68873-5.92776,94.58489,94.58489,0,0,1-7.05084-6.67454A55.59052,55.59052,0,0,1,395.37164,268.13461Z" fill="#50661a"/><path d="M396.03009,280.73223a51.70823,51.70823,0,0,1,8.55,4.14774,87.56621,87.56621,0,0,1,7.77361,5.18767,86.10773,86.10773,0,0,1,7.18575,5.97483,51.09625,51.09625,0,0,1,6.40177,7.02477,51.14246,51.14246,0,0,1-8.55356-4.14277,86.1015,86.1015,0,0,1-7.77-5.19271,87.62344,87.62344,0,0,1-7.18173-5.9798A51.70763,51.70763,0,0,1,396.03009,280.73223Z" fill="#50661a"/><path d="M395.37164,289.87165a57.52851,57.52851,0,0,1,8.94578,4.54213,97.99346,97.99346,0,0,1,8.16091,5.57586,96.27252,96.27252,0,0,1,7.56723,6.35828,56.85251,56.85251,0,0,1,6.77433,7.40178,56.85832,56.85832,0,0,1-8.94935-4.53716,96.27359,96.27359,0,0,1-8.15734-5.58083,97.97736,97.97736,0,0,1-7.56321-6.36319A57.52571,57.52571,0,0,1,395.37164,289.87165Z" fill="#50661a"/><path d="M393.06618,298.43471a74.99489,74.99489,0,0,1,9.35094,5.18974c2.96882,1.90052,5.84115,3.90964,8.64157,6.0066,2.80845,2.08473,5.53918,4.25819,8.22166,6.504,2.71018,2.22656,5.27026,4.54559,8.07425,6.84223a22.60955,22.60955,0,0,1-5.23587-1.528,51.20064,51.20064,0,0,1-4.862-2.3407,79.80023,79.80023,0,0,1-8.935-5.81435,92.12654,92.12654,0,0,1-8.11713-6.84982A58.3544,58.3544,0,0,1,393.06618,298.43471Z" fill="#50661a"/><path d="M390.26666,307.32715a77.12755,77.12755,0,0,1,10.15412,4.8254c3.24266,1.80643,6.38971,3.746,9.46441,5.78772q4.61269,3.06159,9.00295,6.43857,2.19445,1.69324,4.34691,3.44735a38.73556,38.73556,0,0,0,4.41259,3.37879,8.52343,8.52343,0,0,1-2.85268-.48992c-.91933-.27227-1.81185-.60351-2.69454-.948-1.76048-.69888-3.46154-1.49826-5.13-2.34533a97.35648,97.35648,0,0,1-9.61807-5.674,109.94691,109.94691,0,0,1-8.95247-6.63468A68.04735,68.04735,0,0,1,390.26666,307.32715Z" fill="#50661a"/><path d="M421.42946,274.09113a45.51408,45.51408,0,0,1,1.31243-8.80629,76.47848,76.47848,0,0,1,2.531-8.36048,75.27634,75.27634,0,0,1,3.45394-8.0231,45.02566,45.02566,0,0,1,4.68418-7.573,45.029,45.029,0,0,1-1.30617,8.80842,75.27935,75.27935,0,0,1-2.5373,8.35835,76.58492,76.58492,0,0,1-3.45976,8.021A45.51355,45.51355,0,0,1,421.42946,274.09113Z" fill="#50661a"/><path d="M423.38157,284.374a46.508,46.508,0,0,1,2.52748-8.64163,78.3155,78.3155,0,0,1,3.67551-8.03655,77.01451,77.01451,0,0,1,4.54481-7.57868,46.01226,46.01226,0,0,1,5.704-6.96787,46.01265,46.01265,0,0,1-2.52166,8.64453,77.10705,77.10705,0,0,1-3.68132,8.03365,78.41093,78.41093,0,0,1-4.55017,7.57578A46.56663,46.56663,0,0,1,423.38157,284.374Z" fill="#50661a"/><path d="M424.85884,294.31784a50.94292,50.94292,0,0,1,3.69963-8.67557,86.3285,86.3285,0,0,1,4.77487-7.94889,84.81263,84.81263,0,0,1,5.58921-7.39882,50.37177,50.37177,0,0,1,6.67471-6.66522,50.36846,50.36846,0,0,1-3.69472,8.67909,84.71252,84.71252,0,0,1-4.78023,7.94537,86.23523,86.23523,0,0,1-5.59412,7.39542A50.94514,50.94514,0,0,1,424.85884,294.31784Z" fill="#50661a"/><path d="M425.94121,305.2886a65.68861,65.68861,0,0,1,5.29662-9.31123q2.953-4.40693,6.30171-8.48975,3.33758-4.092,7.062-7.868a64.67035,64.67035,0,0,1,8.07648-7.03878,64.66445,64.66445,0,0,1-5.29171,9.31515q-2.953,4.40666-6.30617,8.48583-3.34563,4.086-7.06692,7.86413A65.60975,65.60975,0,0,1,425.94121,305.2886Z" fill="#50661a"/><path d="M426.81989,316.6648a66.33828,66.33828,0,0,1,6.27222-8.75235q3.4133-4.09743,7.18709-7.83123,3.76307-3.74422,7.87859-7.13415a65.33467,65.33467,0,0,1,8.80193-6.20422,65.33834,65.33834,0,0,1-6.26776,8.75671q-3.4133,4.097-7.1911,7.82688-3.77044,3.73743-7.88306,7.12974A66.31346,66.31346,0,0,1,426.81989,316.6648Z" fill="#50661a"/><path d="M427.3546,323.95927a57.813,57.813,0,0,1,6.81453-7.399,98.49573,98.49573,0,0,1,7.59716-6.36369,96.75632,96.75632,0,0,1,8.1895-5.58017,57.15078,57.15078,0,0,1,8.98017-4.53492,57.16656,57.16656,0,0,1-6.811,7.404,96.83033,96.83033,0,0,1-7.60074,6.35878,98.56822,98.56822,0,0,1-8.19351,5.57519A57.82589,57.82589,0,0,1,427.3546,323.95927Z" fill="#50661a"/><path d="M427.64764,330.05225a61.20134,61.20134,0,0,1,7.96123-6.61943q4.17582-2.96854,8.60583-5.49272,4.42308-2.5366,9.09363-4.64012a60.4826,60.4826,0,0,1,9.74449-3.50275,60.49169,60.49169,0,0,1-7.95855,6.62473q-4.17582,2.96821-8.60851,5.48736-4.42778,2.52849-9.09676,4.63482A61.21032,61.21032,0,0,1,427.64764,330.05225Z" fill="#50661a"/><path d="M427.42026,334.00439a66.09621,66.09621,0,0,1,9.31431-5.365c3.19575-1.54282,6.454-2.91745,9.76548-4.148q4.9665-1.84753,10.10677-3.227a65.13378,65.13378,0,0,1,10.56286-1.99835,65.13343,65.13343,0,0,1-9.31207,5.37077q-4.7943,2.31372-9.76772,4.14221c-3.31324,1.22577-6.68007,2.30758-10.109,3.22121A66.08653,66.08653,0,0,1,427.42026,334.00439Z" fill="#50661a"/><path d="M428.67478,333.59842s22.06637-36.73385,25.52453-45.95562" fill="none" stroke="#5e7c24" stroke-miterlimit="10" stroke-width="0.91486"/><path d="M446.78918,268.37592a39.302,39.302,0,0,1,2.11337,7.0835,66.21892,66.21892,0,0,1,1.08014,7.18184,64.90051,64.90051,0,0,1,.29751,7.25621,38.77113,38.77113,0,0,1-.746,7.35544,38.80667,38.80667,0,0,1-2.11829-7.08311,65.00948,65.00948,0,0,1-1.07523-7.18229,66.22,66.22,0,0,1-.29259-7.25666A39.26754,39.26754,0,0,1,446.78918,268.37592Z" fill="#5e7c24"/><path d="M438.71985,279.4091a37.4884,37.4884,0,0,1,2.74234,6.67873,62.96268,62.96268,0,0,1,1.72295,6.8745,61.99948,61.99948,0,0,1,.951,7.02276,37.078,37.078,0,0,1-.07862,7.22042,37.04363,37.04363,0,0,1-2.74725-6.67778,61.99693,61.99693,0,0,1-1.718-6.87551,63.06149,63.06149,0,0,1-.94613-7.02365A37.52283,37.52283,0,0,1,438.71985,279.4091Z" fill="#5e7c24"/><path d="M434.27376,292.25369a31.80849,31.80849,0,0,1,2.3345,6.20784,52.84383,52.84383,0,0,1,1.30617,6.35459,51.95705,51.95705,0,0,1,.52846,6.4656,31.40671,31.40671,0,0,1-.50925,6.61373,31.40867,31.40867,0,0,1-2.33941-6.20717A51.86857,51.86857,0,0,1,434.293,305.333a52.8429,52.8429,0,0,1-.52354-6.46632A31.778,31.778,0,0,1,434.27376,292.25369Z" fill="#5e7c24"/><path d="M428.67472,305.07454a24.35134,24.35134,0,0,1,2.36711,5.28294,39.68371,39.68371,0,0,1,1.3437,5.45961,38.94964,38.94964,0,0,1,.56955,5.59329,24.06861,24.06861,0,0,1-.46324,5.77163,24.05069,24.05069,0,0,1-2.372-5.2821,39.01469,39.01469,0,0,1-1.33923-5.46045,39.74858,39.74858,0,0,1-.56464-5.59412A24.351,24.351,0,0,1,428.67472,305.07454Z" fill="#5e7c24"/><path d="M423.73458,313.088a21.92381,21.92381,0,0,1,2.49888,4.63861,37.80216,37.80216,0,0,1,1.57108,4.81194,43.19564,43.19564,0,0,1,.9488,4.93467c.10275.83758.197,1.67047.25954,2.51944a18.74958,18.74958,0,0,0,.27607,2.57974,5.06509,5.06509,0,0,1-.60753-.3835l-.49316-.49417a9.11958,9.11958,0,0,1-.8626-1.07891,17.28127,17.28127,0,0,1-1.32627-2.30826,25.70358,25.70358,0,0,1-1.74038-4.86722,28.81,28.81,0,0,1-.81926-5.0679A19.07864,19.07864,0,0,1,423.73458,313.088Z" fill="#5e7c24"/><path d="M451.58727,293.3073a31.51618,31.51618,0,0,1,5.566-4.82651,51.57876,51.57876,0,0,1,6.15206-3.66853,50.67371,50.67371,0,0,1,6.59609-2.79209,31.15513,31.15513,0,0,1,7.18754-1.62306,31.14773,31.14773,0,0,1-5.56286,4.832,50.67841,50.67841,0,0,1-6.15519,3.663,51.55782,51.55782,0,0,1-6.59877,2.78657A31.51309,31.51309,0,0,1,451.58727,293.3073Z" fill="#5e7c24"/><path d="M446.12,303.51916a38.82355,38.82355,0,0,1,6.865-4.49405,64.63866,64.63866,0,0,1,7.32154-3.279,63.48111,63.48111,0,0,1,7.66685-2.35951,38.3814,38.3814,0,0,1,8.12741-1.13291,38.38931,38.38931,0,0,1-6.86233,4.49986,63.49468,63.49468,0,0,1-7.32378,3.27319,64.62387,64.62387,0,0,1-7.66908,2.35371A38.824,38.824,0,0,1,446.12,303.51916Z" fill="#5e7c24"/><path d="M439.68429,314.87a33.108,33.108,0,0,1,6.18824-4.33887,54.40873,54.40873,0,0,1,6.66042-3.12975,53.44423,53.44423,0,0,1,7.01734-2.21467,32.72478,32.72478,0,0,1,7.49352-.994,32.73668,32.73668,0,0,1-6.186,4.34463,53.45166,53.45166,0,0,1-6.66265,3.124,54.41517,54.41517,0,0,1-7.01957,2.20892A33.10686,33.10686,0,0,1,439.68429,314.87Z" fill="#5e7c24"/><path d="M434.59807,323.60678a24.82021,24.82021,0,0,1,5.4351-3.58,39.63872,39.63872,0,0,1,5.82284-2.34125,38.928,38.928,0,0,1,6.11677-1.40389,24.55658,24.55658,0,0,1,6.50809-.15339,24.55476,24.55476,0,0,1-5.43331,3.58583,38.92489,38.92489,0,0,1-5.82507,2.33539,39.61918,39.61918,0,0,1-6.11812,1.39792A24.833,24.833,0,0,1,434.59807,323.60678Z" fill="#5e7c24"/><path d="M430.58306,331.44617a32.64587,32.64587,0,0,1,5.97427-4.53933,53.5781,53.5781,0,0,1,6.48978-3.34819,52.64353,52.64353,0,0,1,6.88019-2.44684,32.279,32.279,0,0,1,7.40061-1.24431,32.266,32.266,0,0,1-5.97159,4.545,52.62465,52.62465,0,0,1-6.49245,3.34261,53.5675,53.5675,0,0,1-6.88243,2.441A32.64411,32.64411,0,0,1,430.58306,331.44617Z" fill="#5e7c24"/><path d="M453.36383,288.96022a22.97736,22.97736,0,0,1,.17823-7.337,34.57151,34.57151,0,0,1,1.86948-6.67471,34.00407,34.00407,0,0,1,3.15063-6.17306A22.7479,22.7479,0,0,1,463.421,263.271a22.73441,22.73441,0,0,1-.16975,7.34014,34.0351,34.0351,0,0,1-1.87751,6.67159,34.576,34.576,0,0,1-3.15912,6.16987A22.98111,22.98111,0,0,1,453.36383,288.96022Z" fill="#5e7c24"/><path d="M434.20757,359.61384H417.6748l-5.31876-28.2177a1.12155,1.12155,0,0,1,1.09444-1.3347h24.98141a1.12155,1.12155,0,0,1,1.09444,1.3347Z" fill="#935b50"/><path d="M439.14207,333.435l.38432-2.03885a1.12155,1.12155,0,0,0-1.09443-1.33471H413.45047a1.12155,1.12155,0,0,0-1.09444,1.33471l.38432,2.03885Z" fill="#d6694b"/><polygon points="418.996 351.622 415.504 348.097 418.996 344.572 422.489 348.097 418.996 351.622" fill="#d6694b"/><polygon points="425.981 351.622 422.489 348.097 425.981 344.572 429.474 348.097 425.981 351.622" fill="#d6694b"/><polygon points="432.886 351.622 429.393 348.097 432.886 344.572 436.378 348.097 432.886 351.622" fill="#d6694b"/><path d="M340.8917,338.92223s11.83884,12.96164,24.77,16.68714a2.75572,2.75572,0,0,1,1.98711,2.00407,1.63288,1.63288,0,0,1-1.03119,2.0004H337.02447c-1.99189-.10563-2.98965-3.34718-2.884-5.33907l.25353-4.78075-3.21517-5.09091Z" fill="#f9977a"/><path d="M363.29527,333.435l6.14322,5.0419a9.42828,9.42828,0,0,0,8.84732,2.33334c5.78644-1.4717,14.771-3.8491,17.37049-5.05547A2.87416,2.87416,0,0,1,398.1,338.96321s-15.28792,13.77027-21.89821,18.90493a4.96644,4.96644,0,0,1-6.0858.04336,11.649,11.649,0,0,1-2.14435-2.13469,60.34634,60.34634,0,0,0-12.48406-11.76105h0Z" fill="#f9977a"/><path d="M223.24325,251.91664c5.85194,6.42444,21.49854,11.29343,22.095,2.62377l-3.10852-6.63851a14.73226,14.73226,0,0,1-1.1411-9.21511c.12151-.58754.24515-.98206.35886-.98958,1.84621-.12209,5.5745-.76228,3.67744-4.0051a3.16576,3.16576,0,0,1,.46862-2.79732.89315.89315,0,0,0-.325-1.33683,9.10743,9.10743,0,0,1-3.11441-2.17324.63156.63156,0,0,1,.45587-1.0186l3.56163-.23627a.50875.50875,0,0,0,.44838-.67024l-.14932-.44265a.54264.54264,0,0,1,.34962-.69052l1.17006-.37233a1.29038,1.29038,0,0,0,.68725-1.938l-2.7256-4.14962a3.51431,3.51431,0,0,1-.5673-2.29847c.29214-2.70253,2.43187-2.19838.15857-7.48918,0,0-6.99835-5.66-18.10415,4.56611,0,0,.45836-.62965-4.60618,5.38566,0,0-1.99414,2.25609.19127,8.35922,0,0-4.59519,17.55762-5.61535,19.12174Z" fill="#f9977a"/><path d="M238.15082,216.87476a.50016.50016,0,0,1-.48378-.85505,19.109,19.109,0,0,1,7.28689-3.633.50016.50016,0,0,1,.59967.375.49517.49517,0,0,1-.375.59966,18.48359,18.48359,0,0,0-6.86431,3.42112A.5.5,0,0,1,238.15082,216.87476Z"/><path d="M240.88413,217.515a3.57437,3.57437,0,0,1,1.675-1.22619,2.96846,2.96846,0,0,1,2.07818-.0398c-.34681.07862-.66929.12195-.98416.21473-.312.0946-.62228.17456-.92343.29492C242.11763,216.97426,241.53054,217.2466,240.88413,217.515Z" fill="#350500"/><ellipse cx="243.39693" cy="217.43034" rx="0.63015" ry="1.10002" transform="translate(-56.72934 89.20303) rotate(-18.64059)" fill="#050505"/><path d="M223.29111,221.26152a6.59825,6.59825,0,0,1,2.12723-.9289,2.42,2.42,0,0,1,1.08159.051,4.30383,4.30383,0,0,1,1.06337.49821,2.13372,2.13372,0,0,0-2.22895-1.042,3.15912,3.15912,0,0,0-2.04324,1.42161Z" fill="#dd765e"/><path d="M224.53088,224.93682a3.31509,3.31509,0,0,0,.86588-1.00557,4.042,4.042,0,0,0,.46983-1.26209,4.89742,4.89742,0,0,0,.07045-.67663,3.79426,3.79426,0,0,0-.06714-.67577,3.121,3.121,0,0,0-.50485-1.23,10.27933,10.27933,0,0,1,.11684,1.27,5.3936,5.3936,0,0,1-.1064,1.21945A8.89782,8.89782,0,0,1,224.53088,224.93682Z" fill="#dd765e"/><path d="M220.82029,233.039c-3.24189-.07578-5.20528-4.92135-7.11408-9.63219a24.381,24.381,0,0,1-2.23661-10.96542c.13887-2.84536.27335-5.60087,2.21459-8.38787,2.69713-3.87219,7.0885-5.23033,10.591-6.31356,3.92047-1.21251,7.05426-2.18171,10.38612-1.10556,3.53156,1.14065,4.31814.682,6.81518,2.8971.86075.76357,3.66768.514,5.3702,1.19694.33944.13617,2.30838.926,2.33631,1.93735.012.4361-.14061,4.0953-6.44145,6.33729-3.6372,1.2942-4.92362,1.063-6.54761,2.23023-3.57692,2.57085-6.0833,1.63645-6.9222,1.97659-1.00973.40943.32641,1.594,1.39221,3.79771a24.98449,24.98449,0,0,1,1.79929,5.1996c.68678,2.80057.37983,3.5363,1.29544,5.45247a6.508,6.508,0,0,0,2.20711,2.96065c1.46266.98091,3.12341.98827,5.39236.97067,3.93959-.03057,3.99385-1.19814,4.61654-.42367.623.7749.51984,3.88628-.26592,4.7979-2.17061,2.51827-5.431,1.87328-7.57445,2.04837-2.89457.23645-9.54406-1.30664-10.24134-4.79491-.37468-1.87435.04668-6.94532.34694-9.93434a4.60626,4.60626,0,0,0-2.32207-4.55377,2.15429,2.15429,0,0,0-1.27186-.30624,2.92284,2.92284,0,0,0-2.22191,1.93676c-.08161.26019-.31682,1.17625,1.19951,3.46639C225.2208,226.23987,223.64236,233.105,220.82029,233.039Z"/><path d="M247.35322,226.23942a1.00365,1.00365,0,0,1-.25141.05l-4.19307.29027a3.8367,3.8367,0,0,1-2.70875-.86451,1.00025,1.00025,0,0,1,1.26893-1.54654,1.84375,1.84375,0,0,0,1.30169.4155l4.19307-.29027a1.00035,1.00035,0,0,1,.38954,1.94554Z"/><path d="M357.24407,349.13524l-14.20951-8.07234L331.17881,347.753l-27.07889-28.27161s-90.91545,82.60762-91.75472,10.705c0,0,64.99553-44.70564,97.00232-43.312a9.31862,9.31862,0,0,1,7.40809,4.18779l4.83964,7.3906,46.53832,35.92533Z" fill="#376f92"/><path d="M343.03456,341.06289l3.72656-2.64563-.022.10608q-6.44562-9.917-12.71873-19.94288l-6.25625-10.03637q-3.1184-5.02423-6.16891-10.09131,3.24,4.94769,6.43613,9.92309l6.34881,9.978q6.30861,10.00342,12.49138,20.08606l.04.06555-.062.0409Z" fill="#10394f"/><path d="M304.09992,319.48134a57.44919,57.44919,0,0,0,.79479-6.15576,17.083,17.083,0,0,0-.0336-3.07214,5.41761,5.41761,0,0,0-.99113-2.86609,4.73794,4.73794,0,0,1,1.32554,2.81738,14.71134,14.71134,0,0,1,.13718,3.14783A24.3407,24.3407,0,0,1,304.09992,319.48134Z" fill="#10394f"/><path d="M314.88305,310.551a22.66411,22.66411,0,0,1-1.95732,3.26269,22.41024,22.41024,0,0,1-2.47085,2.91272,12.76972,12.76972,0,0,1-3.0773,2.2843,6.61159,6.61159,0,0,1-3.70379.79444,7.56378,7.56378,0,0,0,3.54242-1.09131,13.67737,13.67737,0,0,0,2.93233-2.30164,26.40654,26.40654,0,0,0,2.50839-2.80066Q313.8287,312.13247,314.88305,310.551Z" fill="#10394f"/><path d="M250.51513,260.2775c2.28137,6.62875-4.05152,55.8958-4.05152,55.8958s-19.61591,21.748-34.11841,14.01307l-.71423-73.315a15.8191,15.8191,0,0,1,9.44694-14.77678c4.14393-1.76041,9.58758-2.05894,16.22217,1.836A30.33144,30.33144,0,0,1,250.51513,260.2775Z" fill="#f73c4f"/><path d="M250.73008,273.914l13.747,19.8536,8.92709-.87345,10.56068-4.97925a11.07892,11.07892,0,0,1,6.84308-1.17658l11.77517,1.76115c1.16517.17427-2.114,2.01032-3.7186,2.20487-3.37136.40876-56.68671,24.263-65.71494,18.44464-2.94456-1.89768-4.538-2.17249-7.22439-5.40718a28.3611,28.3611,0,0,1-5.91452-12.62749l-2.64788-13.34308,19.22729-.79867,4.35714,17.264,8.01618.24062Z" fill="#f9977a"/><path d="M236.96886,300.44484a10.231,10.231,0,0,1,1.26412-3.57543,9.38747,9.38747,0,0,1,1.15667-1.53089,5.26172,5.26172,0,0,1,1.55753-1.10205,10.25135,10.25135,0,0,0-2.33576,2.8551A29.59467,29.59467,0,0,0,236.96886,300.44484Z" fill="#dd765e"/><path d="M264.47706,293.7676c-2.58071.29968-5.16306.42981-7.7459.57385-2.5854.09277-5.16888.19983-7.76781.13574,2.5723-.30066,5.16007-.43017,7.74588-.574C259.29763,293.81081,261.88651,293.70449,264.47706,293.7676Z" fill="#dd765e"/><path d="M248.60914,284.513a6.15517,6.15517,0,0,1-.22948,2.84521,7.93741,7.93741,0,0,1-1.37059,2.54737,9.56223,9.56223,0,0,1-2.20687,1.861c-.4056.25732-.85261.44043-1.27479.6604-.44916.1648-.89815.32532-1.34966.46729l1.2544-.66041c.39493-.25512.81483-.46679,1.18545-.75036a10.49551,10.49551,0,0,0,2.05352-1.85779A8.36269,8.36269,0,0,0,248.60914,284.513Z" fill="#b02336"/><path d="M224.80446,319.03542a11.31353,11.31353,0,0,1-5.34089-1.24951,10.32076,10.32076,0,0,1-2.27977-1.58374,8.93825,8.93825,0,0,1-1.72141-2.152,14.45705,14.45705,0,0,0,1.9417,1.89575,11.626,11.626,0,0,0,2.25917,1.44922,14.67247,14.67247,0,0,0,2.4919,1.02161A18.36911,18.36911,0,0,0,224.80446,319.03542Z" fill="#b02336"/><path d="M227.98464,324.43764a13.10652,13.10652,0,0,1-3.61414.78284,13.967,13.967,0,0,1-3.71615-.21863,11.01152,11.01152,0,0,1-3.47538-1.34411,10.57008,10.57008,0,0,1-2.7906-2.42664,13.9916,13.9916,0,0,0,2.95653,2.1322,11.61695,11.61695,0,0,0,3.398,1.20874,15.24677,15.24677,0,0,0,3.61.31262A18.98353,18.98353,0,0,0,227.98464,324.43764Z" fill="#b02336"/><path d="M273.40531,302.063a2.41755,2.41755,0,0,1-.91016-4.65723l31.95557-12.97558,10.76416-36.92383a2.417,2.417,0,0,1,4.64062,1.35351l-11.09179,38.0459a2.41831,2.41831,0,0,1-1.41114,1.5625l-33.03906,13.416A2.40672,2.40672,0,0,1,273.40531,302.063Z" fill="#a02d34"/><path d="M236.69486,249.73086l2.02238,13.52294,1.9511,13.533.02609.181-.18384.0083-12.86355.57862-12.86649.50818-.17822.00708-.013-.17493a133.09659,133.09659,0,0,1-.30416-16.19629,50.34494,50.34494,0,0,1,.95878-8.04517,17.81875,17.81875,0,0,1,1.26532-3.84863,6.88462,6.88462,0,0,1,1.12341-1.68274,3.41666,3.41666,0,0,1,1.73764-.98254,3.39658,3.39658,0,0,0-1.70806,1.0105,6.82468,6.82468,0,0,0-1.07962,1.69018,17.70322,17.70322,0,0,0-1.17933,3.8468,56.45053,56.45053,0,0,0-.86222,8.02369,132.80887,132.80887,0,0,0,.41522,16.15149l-.191-.16761,12.86431-.56067,12.86723-.49011-.15758.18909-1.85782-13.54614Z" fill="#b02336"/><path d="M430.25474,192.13418H289.27149V32.10494H430.25474ZM294.2811,187.12539h130.964V37.11374H294.2811Z" fill="#d6694b"/><rect x="284.32779" y="192.17903" width="150.87079" height="7.49855" rx="1.35249" fill="#935b50"/><rect x="294.2811" y="85.3997" width="130.96403" height="5.99884" fill="#e19974"/><rect x="306.51597" y="132.97858" width="61.74401" height="1.04776" transform="translate(1.54217 270.83836) rotate(-43.82932)" fill="#e19974"/><rect x="308.34767" y="111.37039" width="50.88627" height="1.04833" transform="translate(12.78395 256.43275) rotate(-42.77274)" fill="#e19974"/><path d="M298.47292,120.8727a5.70773,5.70773,0,0,1-2.50481.52368,5.64478,5.64478,0,0,1-2.5048-.52368,5.64147,5.64147,0,0,1,2.5048-.52368A5.70773,5.70773,0,0,1,298.47292,120.8727Z" fill="#e6952a"/><polygon points="391.74 187.049 376.926 187.049 371.934 160.814 396.732 160.814 391.74 187.049" fill="#e19974"/><polygon points="396.162 163.809 396.732 160.814 371.934 160.814 372.504 163.809 396.162 163.809" fill="#d6694b"/><rect x="375.897" y="174.61263" width="4.42575" height="4.42575" transform="translate(235.78033 -215.57307) rotate(45)" fill="#d6694b"/><rect x="382.15595" y="174.61263" width="4.42575" height="4.42575" transform="translate(237.61354 -219.99881) rotate(45)" fill="#d6694b"/><rect x="388.34282" y="174.61263" width="4.42575" height="4.42575" transform="translate(239.42563 -224.37359) rotate(45)" fill="#d6694b"/><path d="M390.10364,138.73572s1.30089,18.37845-6.32376,22.27334C383.77988,161.00906,381.14025,154.04116,390.10364,138.73572Z" fill="#558031"/><path d="M365.50035,146.6303s12.47355,2.1522,18.27953,14.37876C383.77988,161.00906,370.06322,156.35032,365.50035,146.6303Z" fill="#849f4c"/><path d="M369.92314,170.70361s6.34365-9.49036,13.85674-9.69455C383.77988,161.00906,382.64882,168.65055,369.92314,170.70361Z" fill="#a6b862"/><path d="M377.74815,141.35536s8.80185,8.0364,6.03173,19.6537C383.77988,161.00906,378.904,155.84067,377.74815,141.35536Z" fill="#849f4c"/><path d="M383.77988,161.00906s3.09241-11.32,18.72528-14.2228C402.50516,146.78626,398.98708,157.09334,383.77988,161.00906Z" fill="#a6b862"/><path d="M406.64635,158.04992s-11.92744-4.91718-22.86647,2.95914C383.77988,161.00906,398.32215,162.755,406.64635,158.04992Z" fill="#849f4c"/><path d="M406.53784,169.49766s-5.7592-9.22489-22.758-8.4886Z" fill="#558031"/><path d="M359.07564,159.51587s15.66444-5.80832,24.90922,1.21547C383.98486,160.73134,375.2067,165.56645,359.07564,159.51587Z" fill="#558031"/><path d="M371.92087,142.69737s13.97745,9.88583,11.97236,18.31973C383.89323,161.0171,374.19612,153.24207,371.92087,142.69737Z" fill="#558031"/><path d="M396.43985,170.84882s-11.52281-1.96719-12.66-9.83976C383.77988,161.00906,392.19927,161.42607,396.43985,170.84882Z" fill="#849f4c"/><path d="M276.04244,31.03672s-11.80359,108.63675-4.98635,177.82294a3.437,3.437,0,0,0,.34773,1.23806c.646,1.25949,2.49147,3.27384,7.02988-.30394a3.72932,3.72932,0,0,1,1.54746-.747,4.805,4.805,0,0,1,5.77707,2.7659c1.97609,4.42792,7.41035,2.6165,8.89242-1.171,1.03767-2.65182,4.17419-1.9132,5.96187-1.23182a3.7482,3.7482,0,0,0,2.55092.05461c1.88585-.64145,5.34726-1.28305,6.63726,2.00059,1.434,3.65028,4.10657,1.21133,5.15788.03666a3.55673,3.55673,0,0,1,2.31611-1.18582,8.87377,8.87377,0,0,1,4.71192,1.14916c3.11423,1.55711,5.10165,1.086,6.06373.61606a3.29394,3.29394,0,0,0,.877-.65952c.62515-.629,2.77507-2.34432,6.06856-.28589a5.02568,5.02568,0,0,0,4.777.54869,3.60476,3.60476,0,0,1,3.81049.74613c1.56326,1.4496,3.83062,2.69454,5.60067.15794a3.593,3.593,0,0,1,3.57736-1.51047,5.47841,5.47841,0,0,1,2.48946,1.21043c1.95392,1.60912,4.0683-.31153,5.16728-1.61853a3.56009,3.56009,0,0,0,.81927-2.11928c.53045-10.29891,4.40213-91.17691-.05827-177.51386Z" fill="#ffba55"/><path d="M367.821,31.03672s-10.1,104.51338,44.79145,115.93081l-6.26351,38.13674a2.8452,2.8452,0,0,0,2.80759,3.30632h.76624c1.54291,0,2.01056,3.34522,7.5087,2.40349a2.85447,2.85447,0,0,1,3.35981,2.79567v7.89752a2.8512,2.8512,0,0,0,2.47518,2.82171,22.08278,22.08278,0,0,0,2.78355.21946,2.83407,2.83407,0,0,1,2.78907,3.27453c-.0298.18434-.06207.36684-.097.54538a2.84008,2.84008,0,0,0,2.4069,3.33341,7.42335,7.42335,0,0,0,3.11038-.05848,2.984,2.984,0,0,1,2.43808.177c1.68579.97037,4.59383,1.906,7.13368-.96916a2.78328,2.78328,0,0,0,.67329-1.84338V31.03672Z" fill="#ffba55"/><path d="M279.99462,34.11062,278.4487,76.3362c-.49263,14.07508-1.01168,28.14893-1.38821,42.22669q-.671,21.113-.95,42.23364c-.0891,7.03943-.13051,14.08032-.01242,21.11829l.10331,5.27807c.06942,1.75757.11559,3.51746.21474,5.27381.10494,1.75622.20691,3.51306.40624,5.26123.06578.87866.2118,1.74511.35547,2.61315a16.4273,16.4273,0,0,0,.62115,2.56092,16.46551,16.46551,0,0,1-.67613-2.55054c-.16231-.86609-.32723-1.73291-.41161-2.61023-.23678-1.74719-.37616-3.50354-.51849-5.26-.13657-1.75671-.22009-3.51648-.32689-5.27539l-.21538-5.28052c-.21066-7.04345-.247-14.08911-.2437-21.13366.0269-14.0896.36451-28.1742.74031-42.25574.4531-14.07947.95844-28.15674,1.60169-42.228l1.02868-21.10364Z" fill="#f73c4f"/><path d="M294.04684,34.11062l-1.47943,19.512c-.46,6.50452-.92814,13.00732-1.27058,19.51684q-.582,9.7599-.78774,19.532l-.037,4.88513c-.01459,1.629.06837,3.25427.09354,4.88293-.01068,1.63172.17267,3.24854.255,4.87635a21.00239,21.00239,0,0,0,.26374,2.4259l.32776,2.42456c-1.40349-6.39111-1.5189-12.98218-1.60667-19.49963-.00332-6.53247.26211-13.05848.57909-19.57862.41931-6.5144.87425-13.02563,1.48482-19.52331C292.47962,47.06753,293.17357,40.578,294.04684,34.11062Z" fill="#f73c4f"/><path d="M292.098,200.54165c-.474-5.96936-.80053-11.94776-1.06964-17.92871-.26944-5.98108-.41762-11.9668-.55451-17.95337-.04709-5.988-.089-11.97791.0768-17.96717a119.84748,119.84748,0,0,1,1.54735-17.89392q-.54335,4.46064-.66094,8.941c-.12854,2.98572-.15429,5.97608-.18279,8.96485q-.02972,8.96941.13327,17.94091c.06033,5.98169.22219,11.96216.341,17.94458Z" fill="#f73c4f"/><path d="M312.49038,36.30629q-.42986,8.29853-.76334,16.60071l-.708,16.60071c-.43371,11.068-.85867,22.13623-1.08815,33.2085-.30158,11.07007-.4343,22.14489-.30663,33.21472.05723,5.53491.203,11.07007.55608,16.59228.3632,5.50928.73153,11.07849,2.31008,16.40088-1.72308-5.2821-2.24465-10.8612-2.75661-16.36865-.44623-5.52832-.67-11.07007-.81315-16.61121-.2737-11.08435-.13345-22.17065.0967-33.25024.30613-11.07837.71751-22.153,1.30191-33.21851l.96363-16.59277Q311.84938,44.59133,312.49038,36.30629Z" fill="#f73c4f"/><polygon points="324.786 36.306 324.679 51.571 324.478 66.834 323.925 97.355 323.162 127.873 322.704 143.13 322.151 158.385 322.257 143.12 322.458 127.858 323.012 97.336 323.777 66.818 324.234 51.561 324.786 36.306" fill="#f73c4f"/><path d="M331.37305,38.94106l.97435,17.55676.7475,17.56812c.44315,11.71472.7153,23.43542.9346,35.15759.12224,11.72351.15922,23.45032-.09818,35.17444-.32208,11.71362-.7664,23.4707-2.55827,35.06531l.4845-4.36878c.164-1.45532.33941-2.90844.40352-4.37341.15823-2.92566.428-5.84155.49444-8.77124.09913-2.92737.24613-5.85193.31526-8.77966l.15693-8.785q.16719-17.57264-.11191-35.14868c-.14274-11.71716-.42859-23.43249-.721-35.14831l-.49185-17.573Z" fill="#f73c4f"/><path d="M341.034,38.94106l.87831,18.27.65812,18.27942c.395,12.18823.60707,24.38171.77466,36.57593.10516,12.1947.08946,24.39294-.17923,36.5874-.08989,3.04822-.13837,6.097-.26227,9.14429l-.38142,9.14062-.61582,9.12817c-.25742,3.0387-.584,6.07142-.87235,9.10511.2142-3.04175.4662-6.079.649-9.12l.39189-9.13293.2511-9.13758c.08187-3.04553.08837-6.09362.13626-9.14.12278-12.18726.14582-24.377-.03091-36.56592-.09107-12.18945-.31689-24.37817-.56119-36.567Z" fill="#f73c4f"/><path d="M348.49919,41.13674l1.0885,14.63342.95468,14.64209c.61168,9.76306,1.12692,19.53162,1.63685,29.30091.43866,9.77258.89174,19.54528,1.16463,29.3258.23491,9.77612.56326,19.574-.01421,29.34595l.08826-3.66638c.019-1.22144-.024-2.44471-.033-3.66651-.01415-2.444-.11318-4.88757-.19137-7.33081q-.21354-7.32971-.55293-14.6571-.62754-14.65485-1.37406-29.3064L349.84293,70.451l-.69934-14.655Z" fill="#f73c4f"/><path d="M353.51471,202.902c.09523-2.849.24357-5.68848.36565-8.52832l.34007-8.51306c.09334-2.83606.1457-5.67127.13548-8.505-.02752-1.41479-.054-2.8324-.18229-4.2406a21.07725,21.07725,0,0,0-.65891-4.19092,27.14723,27.14723,0,0,1,1.54447,8.40625c.17681,2.85364.14834,5.70984.07506,8.56055-.10979,2.84949-.27815,5.69519-.555,8.53125C354.31065,197.25844,353.98551,200.08962,353.51471,202.902Z" fill="#f73c4f"/><path d="M319.95562,200.54165c-.0053-2.82093.08947-5.63526.19941-8.44861.09951-2.81409.27073-5.62342.44223-8.43286.19322-2.80786.38829-5.61573.654-8.41895.25654-2.80383.52734-5.60669.9-8.403.00674,2.82092-.08839,5.63525-.19779,8.44873-.10024,2.814-.27111,5.62341-.44385,8.43261-.19444,2.80787-.38916,5.61573-.65559,8.41895C320.59805,194.9424,320.32687,197.74526,319.95562,200.54165Z" fill="#f73c4f"/><path d="M302.39035,52.115l-1.07217,26.56714c-.3358,8.85522-.6668,17.71-.87427,26.5675-.28937,8.85547-.42083,17.71424-.46327,26.5719-.0472,4.42957.01885,8.85743.0864,13.28638l.18174,6.642.385,6.635-.60852-6.62219-.40572-6.6399c-.1601-4.431-.304-8.8645-.34266-13.29846-.10336-8.86828.03559-17.73633.25353-26.59973.28409-8.86182.60147-17.72229,1.088-26.57446l.78489-13.2743Z" fill="#f73c4f"/><path d="M374.408,36.30629c.10365,5.0907.45209,10.17164.91552,15.23731q.66432,7.60144,1.75484,15.15356a214.42714,214.42714,0,0,0,6.30647,29.79932c1.43593,4.86963,3.08252,9.67578,4.99632,14.37512a105.74625,105.74625,0,0,0,6.77893,13.6034,65.585,65.585,0,0,0,9.09718,12.14648,51.43749,51.43749,0,0,0,11.86827,9.46777c-9.02329-4.80725-16.28214-12.528-21.56649-21.24817-5.38833-8.71008-9.10774-18.3258-12.05117-28.08776a204.77786,204.77786,0,0,1-6.12352-29.96094A227.62163,227.62163,0,0,1,374.408,36.30629Z" fill="#f73c4f"/><path d="M412.17331,183.69c.14219-2.6084.38386-5.204.6406-7.79773.24639-2.59509.56406-5.181.882-7.767.33952-2.58313.6809-5.16613,1.09249-7.74011.40248-2.57507.81915-5.14844,1.33709-7.70886-.14076,2.6084-.38279,5.2041-.639,7.79785-.24711,2.595-.56443,5.18091-.8836,7.76673-.34075,2.583-.68177,5.166-1.09409,7.73986C413.10685,178.55605,412.68982,181.12929,412.17331,183.69Z" fill="#f73c4f"/><path d="M422.71248,185.913c-.042-2.77966.01607-5.55407.08936-8.32763.06286-2.77417.19748-5.54456.33238-8.31482.15663-2.76917.31511-5.53833.54428-8.30371.22-2.76575.45427-5.53089.7905-8.29053.04348,2.77966-.015,5.55408-.08776,8.32776-.06358,2.774-.19785,5.54443-.334,8.3147-.15786,2.76916-.316,5.5382-.54588,8.30358C423.28191,180.3882,423.04726,183.15322,422.71248,185.913Z" fill="#f73c4f"/><path d="M430.61685,200.54165c-.18867-4.28162-.27707-8.56311-.35026-12.84461-.07532-4.28161-.0684-8.56311-.10664-12.8446.03581-4.28162.03215-8.56311.105-12.84461.07372-4.28161.16174-8.56311.35186-12.8446.19012,4.28149.27814,8.563.35186,12.8446.07288,4.2815.06922,8.563.105,12.84461-.03824,4.28149-.03132,8.563-.10664,12.8446C430.89391,191.97854,430.80552,196.26,430.61685,200.54165Z" fill="#f73c4f"/><path d="M438.08209,202.902c-.18867-4.18555-.27706-8.371-.35026-12.55652-.07532-4.18543-.0684-8.371-.10664-12.5564.03582-4.18542.03216-8.371.105-12.55639.07372-4.18555.16174-8.371.35186-12.5564.19012,4.18542.27814,8.37085.35186,12.5564.07288,4.18542.06923,8.371.105,12.55639-.03824,4.18543-.03132,8.371-.10664,12.5564C438.35916,194.531,438.27076,198.71645,438.08209,202.902Z" fill="#f73c4f"/><path d="M386.70367,38.94106c.04353,4.669.33872,9.32983.74132,13.9762q.58456,6.97155,1.56974,13.89807a214.80442,214.80442,0,0,0,5.60063,27.36792c1.221,4.49438,2.63883,8.93262,4.21249,13.31421,1.57446,4.38354,3.43218,8.65539,5.3898,12.87854a122.47149,122.47149,0,0,0,6.73,12.23327,104.21026,104.21026,0,0,0,8.25175,11.28431,104.44061,104.44061,0,0,1-8.62726-11.04053,121.552,121.552,0,0,1-6.98723-12.16895,151.10426,151.10426,0,0,1-9.85066-26.25854,203.25526,203.25526,0,0,1-5.41384-27.51709q-.86842-6.95965-1.31912-13.959C386.74593,48.28347,386.59889,43.60976,386.70367,38.94106Z" fill="#f73c4f"/><path d="M399.87762,41.13674c.17115,4.23181.48107,8.45544.8487,12.67187q.51585,6.32721,1.25216,12.6316c.98608,8.4021,2.1791,16.78271,3.8424,25.073a194.27246,194.27246,0,0,0,6.27,24.54639,108.95544,108.95544,0,0,0,4.57358,11.81152,76.95372,76.95372,0,0,0,6.048,11.13721,89.04172,89.04172,0,0,1-11.28772-22.72192c-1.42071-4.0011-2.61308-8.0802-3.67263-12.18872-1.06333-4.108-2.01609-8.24512-2.82808-12.40918Q402.5332,79.18789,401.282,66.51516C400.448,58.07863,399.9314,49.60927,399.87762,41.13674Z" fill="#f73c4f"/><path d="M424.469,38.94106c-.62088,4.26367-1.11058,8.54419-1.54416,12.828-.451,4.282-.83955,8.56995-1.1322,12.86389-.60023,8.585-.96393,17.19-.78733,25.78772a143.03948,143.03948,0,0,0,2.419,25.62134,61.15881,61.15881,0,0,0,3.63357,12.31861,29.93491,29.93491,0,0,0,7.072,10.6477,30.15582,30.15582,0,0,1-7.48205-10.468,61.27575,61.27575,0,0,1-3.91231-12.354,137.30964,137.30964,0,0,1-2.6439-25.74988c-.10073-8.6344.2508-17.26611,1.00267-25.85876q.56841-6.4444,1.38869-12.86023C423.06447,47.44545,423.70169,43.18129,424.469,38.94106Z" fill="#f73c4f"/><path d="M411.29505,36.30629c-.13873,2.9004-.27446,5.79871-.35124,8.69922q-.15642,4.34839-.21786,8.69788c-.08356,5.79785-.10458,11.5968.12252,17.3866.1566,5.791.54946,11.57519,1.26228,17.3186.36026,2.87061.8193,5.73,1.44976,8.55359a44.78164,44.78164,0,0,0,2.565,8.28784c-2.62678-5.21326-3.80091-11.01672-4.71183-16.745a159.85412,159.85412,0,0,1-1.4785-17.38514c-.15138-5.81347-.14394-11.62915.09053-17.43567C410.26338,47.87868,410.63574,42.07766,411.29505,36.30629Z" fill="#f73c4f"/><path d="M434.1299,45.08889c-.26431,5.36914-.51495,10.73413-.70212,16.10034-.18045,5.366-.35548,10.73132-.35307,16.09705-.06467,5.36462.03065,10.72985.33354,16.08081.14015,2.67639.37775,5.347.74378,7.99951a39.0142,39.0142,0,0,0,1.7344,7.83557c-2.07925-4.99048-2.67543-10.44678-3.18012-15.78491-.45027-5.36975-.53851-10.757-.54538-16.13672.07416-5.38013.23581-10.75745.56715-16.12488C433.06181,55.78884,433.48946,50.42763,434.1299,45.08889Z" fill="#f73c4f"/><path d="M410.51067,152.67624c-.37166,0-.60306-.01072-.679-.01429a2.74457,2.74457,0,0,1,.27964-5.482c.74958.03306,17.79059.57626,32.439-17.17413a2.74414,2.74414,0,0,1,4.233,3.49325C431.79005,151.66936,414.213,152.67624,410.51067,152.67624Z" fill="#f65b2b"/><path d="M457.51371,31.49367H265.83255a.457.457,0,1,1,0-.91406H457.51371a.457.457,0,1,1,0,.91406Z" fill="#f73c4f"/><path d="M265.83255,34.56789a.4571.4571,0,0,1-.45752-.457V27.85305a.45752.45752,0,0,1,.915,0v6.25781A.45709.45709,0,0,1,265.83255,34.56789Z" fill="#f73c4f"/><path d="M457.51371,34.56789a.4571.4571,0,0,1-.45752-.457V27.85305a.45752.45752,0,0,1,.915,0v6.25781A.4571.4571,0,0,1,457.51371,34.56789Z" fill="#f73c4f"/><line x1="1" y1="359.61384" x2="458.42901" y2="359.61384" fill="none" stroke="#935b50" stroke-linecap="round" stroke-linejoin="round" stroke-width="2"/></g></g></svg>